<svg width="2795" height="1886" viewBox="0 0 2795 1886" fill="none" xmlns="http://www.w3.org/2000/svg">
<path d="M1970.27 1054.64C2004.36 968.425 2128.67 918.299 2160.75 908.274C2178.13 908.274 2218.49 918.299 2240.95 958.4C2269.02 1008.53 2339.2 1084.72 2409.37 1199C2479.55 1313.29 2417.39 1319.3 2367.27 1433.59C2317.14 1547.88 2204.86 1648.13 2028.42 1728.33C1851.98 1808.53 1617.39 1822.56 1408.87 1780.46C1200.34 1738.35 997.837 1744.37 925.656 1672.19C853.476 1600.01 815.38 1451.63 949.717 1433.59C1084.05 1415.54 1230.42 1237.1 1483.05 1243.11C1735.68 1249.13 1689.57 1211.03 1795.84 1176.95C1902.1 1142.86 1936.19 1140.86 1970.27 1054.64Z" fill="url(#paint0_linear_2323_6949)"/>
<path d="M1970.27 1136.85C2004.36 1050.63 2128.67 1000.51 2160.75 990.481C2178.13 990.481 2218.49 1000.51 2240.95 1040.61C2269.02 1090.73 2339.2 1166.92 2409.37 1281.21C2479.55 1395.5 2417.39 1401.51 2367.27 1515.8C2317.14 1630.08 2204.86 1730.33 2028.42 1810.53C1851.98 1890.74 1617.39 1904.77 1408.87 1862.67C1200.34 1820.56 997.837 1826.57 925.656 1754.39C853.476 1682.21 815.38 1533.84 949.717 1515.8C1084.05 1497.75 1230.42 1319.3 1483.05 1325.32C1735.68 1331.33 1689.57 1293.24 1795.84 1259.15C1902.1 1225.07 1936.19 1223.06 1970.27 1136.85Z" fill="url(#paint1_linear_2323_6949)"/>
<g filter="url(#filter0_f_2323_6949)">
<ellipse cx="1132.34" cy="1031.08" rx="644.113" ry="314.287" fill="#F1F7FE"/>
</g>
<path d="M293.207 830.72C265.938 933.377 197.634 1005.82 166.89 1029.22C119.438 1056.62 20.9249 1088.97 6.48872 999.142C-11.5565 886.86 12.5038 780.594 24.5339 656.283C36.564 531.972 38.5691 481.846 182.931 493.876C327.292 505.906 804.487 429.715 750.352 533.977C696.216 638.238 660.126 630.218 489.699 656.283C319.272 682.348 327.292 702.398 293.207 830.72Z" fill="url(#paint2_linear_2323_6949)"/>
<g filter="url(#filter1_f_2323_6949)">
<ellipse cx="2095.75" cy="440.603" rx="504.764" ry="246.116" fill="#F1F7FE"/>
</g>
<path d="M1166.53 1136.24L1168.6 1142.4C1171.98 1152.45 1181.2 1160.3 1193 1163.18L1200.23 1164.95L1193 1166.71C1181.2 1169.59 1171.98 1177.45 1168.6 1187.5L1166.53 1193.66L1164.46 1187.5C1161.08 1177.45 1151.86 1169.59 1140.06 1166.71L1132.84 1164.95L1140.06 1163.18C1151.86 1160.3 1161.08 1152.45 1164.46 1142.4L1166.53 1136.24Z" fill="#ABD6F4" fill-opacity="0.5"/>
<path d="M2027.58 684.311L2028.78 687.885C2030.74 693.717 2036.09 698.275 2042.93 699.946L2047.13 700.97L2042.93 701.994C2036.09 703.665 2030.74 708.223 2028.78 714.055L2027.58 717.629L2026.38 714.055C2024.42 708.223 2019.07 703.665 2012.22 701.994L2008.03 700.97L2012.22 699.946C2019.07 698.275 2024.41 693.716 2026.38 687.885L2027.58 684.311Z" fill="#ABD6F4" fill-opacity="0.5"/>
<path d="M343.47 997.839L345.541 1004C348.921 1014.05 358.142 1021.91 369.938 1024.79L377.165 1026.55L369.937 1028.32C358.141 1031.2 348.921 1039.05 345.541 1049.11L343.47 1055.26L341.399 1049.11C338.02 1039.05 328.8 1031.2 317.004 1028.32L309.776 1026.55L317.003 1024.79C328.799 1021.91 338.019 1014.05 341.399 1004L343.47 997.839Z" fill="#ABD6F4" fill-opacity="0.5"/>
<path d="M1428.08 1149.9L1429.15 1153.11C1430.91 1158.34 1435.72 1162.43 1441.86 1163.93L1445.62 1164.85L1441.86 1165.77C1435.71 1167.27 1430.91 1171.36 1429.15 1176.6L1428.08 1179.8L1427 1176.6C1425.24 1171.36 1420.44 1167.27 1414.3 1165.77L1410.53 1164.85L1414.29 1163.93C1420.44 1162.43 1425.24 1158.34 1427 1153.11L1428.08 1149.9Z" fill="#ABD6F4" fill-opacity="0.5"/>
<path d="M1410.03 985.026L1411.11 988.233C1412.87 993.466 1417.67 997.557 1423.81 999.057L1427.58 999.976L1423.81 1000.89C1417.67 1002.39 1412.87 1006.49 1411.11 1011.72L1410.03 1014.93L1408.95 1011.72C1407.19 1006.49 1402.39 1002.39 1396.25 1000.89L1392.49 999.976L1396.25 999.057C1402.39 997.557 1407.19 993.466 1408.95 988.233L1410.03 985.026Z" fill="#ABD6F4" fill-opacity="0.5"/>
<path d="M1847.13 973.063L1849.07 978.836C1852.23 988.257 1860.88 995.62 1871.93 998.32L1878.71 999.974L1871.93 1001.63C1860.88 1004.33 1852.23 1011.69 1849.07 1021.11L1847.13 1026.88L1845.19 1021.11C1842.02 1011.69 1833.38 1004.33 1822.32 1001.63L1815.55 999.974L1822.32 998.32C1833.38 995.62 1842.02 988.256 1845.19 978.836L1847.13 973.063Z" fill="#ABD6F4" fill-opacity="0.5"/>
<path d="M1173.44 696.271L1174.95 700.761C1177.41 708.089 1184.13 713.816 1192.73 715.915L1198 717.202L1192.73 718.488C1184.13 720.588 1177.41 726.315 1174.95 733.642L1173.44 738.132L1171.93 733.642C1169.47 726.315 1162.74 720.588 1154.15 718.488L1148.88 717.202L1154.14 715.915C1162.74 713.816 1169.46 708.088 1171.93 700.761L1173.44 696.271Z" fill="#ABD6F4" fill-opacity="0.5"/>
<defs>
<filter id="filter0_f_2323_6949" x="293.736" y="522.308" width="1677.2" height="1017.55" filterUnits="userSpaceOnUse" color-interpolation-filters="sRGB">
<feFlood flood-opacity="0" result="BackgroundImageFix"/>
<feBlend mode="normal" in="SourceGraphic" in2="BackgroundImageFix" result="shape"/>
<feGaussianBlur stdDeviation="97.2244" result="effect1_foregroundBlur_2323_6949"/>
</filter>
<filter id="filter1_f_2323_6949" x="1396.5" y="0" width="1398.5" height="881.207" filterUnits="userSpaceOnUse" color-interpolation-filters="sRGB">
<feFlood flood-opacity="0" result="BackgroundImageFix"/>
<feBlend mode="normal" in="SourceGraphic" in2="BackgroundImageFix" result="shape"/>
<feGaussianBlur stdDeviation="97.2244" result="effect1_foregroundBlur_2323_6949"/>
</filter>
<linearGradient id="paint0_linear_2323_6949" x1="1650.13" y1="1279.2" x2="2246.63" y2="1543.87" gradientUnits="userSpaceOnUse">
<stop stop-color="#BCDFFD"/>
<stop offset="1" stop-color="#80A7FB"/>
</linearGradient>
<linearGradient id="paint1_linear_2323_6949" x1="1650.13" y1="1361.41" x2="2246.63" y2="1626.07" gradientUnits="userSpaceOnUse">
<stop stop-color="#8AC6F9"/>
<stop offset="1" stop-color="#5287F9"/>
</linearGradient>
<linearGradient id="paint2_linear_2323_6949" x1="376.944" y1="576.443" x2="194.487" y2="963.412" gradientUnits="userSpaceOnUse">
<stop stop-color="#C2E4FF"/>
<stop offset="1" stop-color="#E5F1FD"/>
</linearGradient>
</defs>
</svg>
